<svg id="Layer_1" enable-background="new 0 0 512.257 512.257" height="512" viewBox="0 0 512.257 512.257" width="512" xmlns="http://www.w3.org/2000/svg"><path d="m342.61 109.884c17.585-41.741 39.471-93.684 95.397-80.904 84.771 19.371 102.825 142.671 23.412 237.916-76.586 91.855-194.389 112.064-228.641 28.38-16.463-40.229 6.127-60.155 34.731-85.38 52.799-46.569 59.839-63.779 75.101-100.012z" fill="#dfb7a4"/><path d="m473.888 213.646c-78.235-69.006-85.118-92.179-109.309-149.18-8.793 14.144-15.658 30.438-21.969 45.417-15.452 36.684-22.58 53.688-75.101 100.013-28.604 25.225-51.194 45.152-34.731 85.38 5.605 13.694 13.708 25.026 24.085 33.678 63.463 52.913 182.596-9.212 231.542-102.357-4.649-4.247-9.518-8.541-14.517-12.951z" fill="#c69a85"/><path d="m313.761 162.915c-46.901 59.905-105.118 73.385-80.982 132.362 30.449 74.391 126.051 66.143 199.845 1.232-30.429-31.006-89.16-70.963-118.863-133.594z" fill="#9f7766"/><path d="m239.046 149.493c-24.779-58.816-55.618-132.008-134.422-114-119.45 27.295-144.89 201.035-32.99 335.243 107.915 129.431 273.909 157.907 322.173 39.99 23.198-56.685-8.633-84.763-48.938-120.307-74.398-65.621-84.317-89.87-105.823-140.926z" fill="#9f7766"/><path d="m344.868 290.419c-74.392-65.616-84.314-89.864-105.823-140.926-24.778-58.816-55.617-132.008-134.422-113.999-31.447 7.185-56.445 24.589-74.213 48.735-1.282 178.568 154.741 351.074 310.934 386.43 23.152-12.423 41.225-32.48 52.462-59.932 23.199-56.686-8.633-84.764-48.938-120.308z" fill="#c69a85"/><path d="m104.623 35.494c-8.962 2.048-17.489 4.945-25.539 8.665 66.73 124.718 183.899 233.565 307.031 287.547-10.427-14.102-25.159-27.101-41.246-41.288-74.392-65.616-84.314-89.864-105.823-140.926-24.779-58.815-55.618-132.007-134.423-113.998z" fill="#dfb7a4"/><path d="m217.381 101.847c-29.143 18.852-48.448 51.616-48.448 88.908 0 84.629 94.101 134.009 163.575 88.69-87.216-78.314-79.271-109.078-115.127-177.598z" fill="#dfb7a4"/><path d="m278.303 222.435c-31.13-40.305-36.219-73.381-60.922-120.589-19.968 12.917-35.314 32.366-43 55.327 24.045 34.02 61.1 58.182 103.922 65.262z" fill="#e0c8bf"/></svg>